<?xml version="1.0" encoding="UTF-8" standalone="no"?>
<!DOCTYPE svg PUBLIC "-//W3C//DTD SVG 1.1//EN" "http://www.w3.org/Graphics/SVG/1.1/DTD/svg11.dtd">
<svg width="100%" height="100%" viewBox="0 0 138 80" version="1.1" xmlns="http://www.w3.org/2000/svg" xmlns:xlink="http://www.w3.org/1999/xlink" xml:space="preserve" xmlns:serif="http://www.serif.com/" style="fill-rule:evenodd;clip-rule:evenodd;stroke-linejoin:round;stroke-miterlimit:2;">
    <g transform="matrix(1,0,0,1,-181.41,-186.95)">
        <g>
            <g>
                <g>
                    <path d="M254.39,223.07L261.07,226.44L276.92,218.45L281.16,209.58L254.39,223.07Z" style="fill-rule:nonzero;"/>
                    <path d="M242.18,260.43L248.2,266.44L248.2,235.62L242.18,232.59L242.18,260.43Z" style="fill-rule:nonzero;"/>
                    <path d="M223.08,218.45L251.8,232.94L251.8,266.44L257.82,260.43L257.82,229.23L218.84,209.58L223.08,218.45Z" style="fill-rule:nonzero;"/>
                    <path d="M236.29,229.62L230.92,226.91L223.12,243.26L231.32,260.43L237.99,260.43L229.79,243.26L236.29,229.62Z" style="fill-rule:nonzero;"/>
                    <path d="M250,200.91L257.68,216.99L263.05,214.28L250,186.95L236.95,214.28L242.32,216.99L250,200.91Z" style="fill-rule:nonzero;"/>
                    <path d="M263.71,229.62L270.21,243.25L262.01,260.43L268.68,260.43L276.88,243.25L269.08,226.91L263.71,229.62Z" style="fill-rule:nonzero;"/>
                </g>
                <path d="M298.21,214.19L276.14,260.43L280.65,264.94L301.54,221.17L298.21,214.19Z" style="fill-rule:nonzero;"/>
                <path d="M315.25,206.65L289.57,260.45L294.08,264.96L318.59,213.63L315.25,206.65Z" style="fill-rule:nonzero;"/>
                <path d="M201.79,214.19L223.86,260.43L219.35,264.94L198.46,221.17L201.79,214.19Z" style="fill-rule:nonzero;"/>
                <path d="M184.75,206.65L210.43,260.45L205.92,264.96L181.41,213.63L184.75,206.65Z" style="fill-rule:nonzero;"/>
            </g>
        </g>
    </g>
</svg>
